<?xml version="1.0" encoding="utf-8"?>
<!-- Generator: Adobe Illustrator 17.0.0, SVG Export Plug-In . SVG Version: 6.00 Build 0)  -->
<!DOCTYPE svg PUBLIC "-//W3C//DTD SVG 1.1//EN" "http://www.w3.org/Graphics/SVG/1.1/DTD/svg11.dtd">
<svg version="1.1" id="Capa_1" xmlns="http://www.w3.org/2000/svg" xmlns:xlink="http://www.w3.org/1999/xlink" x="0px" y="0px"
	 width="64px" height="64px" viewBox="0 0 64 64" enable-background="new 0 0 64 64" xml:space="preserve">
<polygon points="36.458,10.258 36.458,24.111 49.291,24.111 "/>
<path d="M20.028,10.258c-2.423,0-4.389,1.967-4.389,4.39v39.229h29.262c2.424,0,4.389-1.966,4.389-4.389V25.69H34.867V10.258H20.028
	z M25.333,14.555c3.536,0,6.402,2.865,6.402,6.401c0,3.537-2.866,6.402-6.402,6.402c-3.535,0-6.402-2.865-6.402-6.402
	C18.931,17.42,21.798,14.555,25.333,14.555z M44.171,40.276c0,0.743-0.982,1.348-2.194,1.348h-8.229c0,0,0-0.604,0-1.348
	c0-0.747,0.982-1.352,2.194-1.352h8.229C44.171,38.925,44.171,39.529,44.171,40.276z M44.171,32.066c0,0,0,0.708,0,1.577
	c0,0.87-0.982,1.578-2.194,1.578H20.395c0,0,0-0.708,0-1.578c0-0.869,0.982-1.577,2.195-1.577H44.171z"/>
</svg>
