<?xml version="1.0" encoding="utf-8"?>
<!-- Generator: Adobe Illustrator 17.0.0, SVG Export Plug-In . SVG Version: 6.00 Build 0)  -->
<!DOCTYPE svg PUBLIC "-//W3C//DTD SVG 1.1//EN" "http://www.w3.org/Graphics/SVG/1.1/DTD/svg11.dtd">
<svg version="1.1" id="Capa_1" xmlns="http://www.w3.org/2000/svg" xmlns:xlink="http://www.w3.org/1999/xlink" x="0px" y="0px"
	 width="64px" height="64px" viewBox="0 0 64 64" enable-background="new 0 0 64 64" xml:space="preserve">
<path d="M31.127,20.219h-7.785c-1.268,0-2.298,1.029-2.298,2.298v4.943c0,0.922,0.281,1.671,0.628,1.671c0.346,0,0.625,0,0.625,0
	v-6.614c0-0.577,0.469-1.045,1.045-1.045h8.505l0.975-1.671h6.812v1.601h0.626c0.347,0,0.628-0.639,0.628-1.427
	c0-0.788,0-1.428,0-1.428h-8.784L31.127,20.219z"/>
<path d="M30.108,16.181h6.81v1.601h0.628c0.346,0,0.626-0.64,0.626-1.428c0-0.788,0-1.427,0-1.427h-8.783l-0.976,1.671h-7.786
	c-1.267,0-2.297,1.03-2.297,2.296v4.943c0,0.926,0.281,1.672,0.626,1.672c0.347,0,0.627,0,0.627,0v-6.615
	c0-0.575,0.469-1.044,1.044-1.044h8.506L30.108,16.181z"/>
<path d="M46.282,9.95H16.416c-1.846,0-3.342,1.496-3.342,3.342V45.4h6.657l4.447,4.853v4.252h24.784
	c1.846,0,3.342-1.496,3.342-3.341V23.665h-6.022V9.95z M15.824,43.889v-2.75l2.522,2.75H15.824z M24.179,27.006v8.251l-8.354-7.867
	V14.721c0-0.923,0.748-1.673,1.671-1.673H43.95v10.617H27.519C25.675,23.665,24.179,25.161,24.179,27.006z M45.604,33.463
	c0,0.895-0.75,1.618-1.672,1.618H31.75c0,0,0-0.724,0-1.618c0-0.894,0.747-1.619,1.67-1.619h12.185
	C45.604,31.844,45.604,32.568,45.604,33.463z"/>
</svg>
