<?xml version="1.0" encoding="iso-8859-1"?>
<!-- Generator: Adobe Illustrator 16.0.0, SVG Export Plug-In . SVG Version: 6.00 Build 0)  -->
<!DOCTYPE svg PUBLIC "-//W3C//DTD SVG 1.1//EN" "http://www.w3.org/Graphics/SVG/1.1/DTD/svg11.dtd">
<svg version="1.1" id="Capa_1" xmlns="http://www.w3.org/2000/svg" xmlns:xlink="http://www.w3.org/1999/xlink" x="0px" y="0px"
	 width="24px" height="24px" viewBox="0 0 24 24" style="enable-background:new 0 0 24 24;" xml:space="preserve">
<g>
	<path d="M24,8.5c0,1.104-0.896,2-2,2c-0.141,0-0.277-0.016-0.411-0.043L19.9,18.5H4.1l-1.689-8.043C2.278,10.485,2.141,10.5,2,10.5
		c-1.104,0-2-0.896-2-2s0.896-2,2-2s2,0.896,2,2c0,0.487-0.181,0.928-0.471,1.274L8,13.5l3.258-8.146C10.522,5.059,10,4.342,10,3.5
		c0-1.104,0.896-2,2-2c1.104,0,2,0.896,2,2c0,0.842-0.521,1.559-1.258,1.854L16,13.5l4.471-3.726C20.182,9.428,20,8.987,20,8.5
		c0-1.104,0.896-2,2-2S24,7.396,24,8.5z M4,22.5h16v-3H4V22.5z"/>
</g>
<g>
</g>
<g>
</g>
<g>
</g>
<g>
</g>
<g>
</g>
<g>
</g>
<g>
</g>
<g>
</g>
<g>
</g>
<g>
</g>
<g>
</g>
<g>
</g>
<g>
</g>
<g>
</g>
<g>
</g>
</svg>
